<svg width="180" height="180" viewBox="0 0 180 180" fill="none" xmlns="http://www.w3.org/2000/svg">
<path d="M61.8013 113.496H51.8844V106.294H61.8013V50.6697H79.3642V136.899H61.687L61.8013 113.496ZM126.76 106.017V113.317H91.1436V136.932H83.7917V50.6697H124.75V57.8555H91.1436V105.968L126.76 106.017ZM90.0327 21.551C53.2077 21.551 23.359 52.0742 23.359 89.7179C23.359 127.362 53.2241 157.869 90.0327 157.869C126.841 157.869 156.706 127.362 156.706 89.7179C156.706 52.0742 126.858 21.551 90.0327 21.551ZM90.0327 162.735C50.6427 162.735 18.7028 130.073 18.7028 89.767C18.7028 49.4612 50.6427 16.7986 90.0327 16.7986C129.423 16.7986 161.363 49.4612 161.363 89.767C161.363 130.073 129.423 162.735 90.0327 162.735ZM90.0327 14.2182C49.6135 14.2182 16.8566 48.1057 16.8566 89.9303C16.8566 131.755 49.6135 165.642 90.0327 165.642C130.452 165.642 163.225 131.738 163.225 89.9303C163.225 48.122 130.452 14.2182 90.0327 14.2182ZM90.0327 174.804C44.6795 174.804 7.91998 136.801 7.91998 89.8813C7.91998 42.9614 44.6305 5.03999 89.9837 5.03999C135.337 5.03999 172.08 43.043 172.08 89.9629C172.08 136.883 135.32 174.886 89.9837 174.886L90.0327 174.804Z" fill="#B69659"/>
</svg>
