<svg width="128" height="128" viewBox="0 0 128 128" fill="none" xmlns="http://www.w3.org/2000/svg">
<path d="M43.9475 80.7085H36.8954V75.587H43.9475V36.0318H56.4366V97.3505H43.8661L43.9475 80.7085ZM90.14 75.3896V80.5808H64.8131V97.3738H59.5851V36.0318H88.711V41.1417H64.8131V75.3548L90.14 75.3896ZM64.0231 15.3251C37.8365 15.3251 16.6107 37.0306 16.6107 63.7994C16.6107 90.5683 37.8481 112.262 64.0231 112.262C90.1981 112.262 111.435 90.5683 111.435 63.7994C111.435 37.0306 90.2097 15.3251 64.0231 15.3251ZM64.0231 115.723C36.0125 115.723 13.2996 92.4961 13.2996 63.8343C13.2996 35.1724 36.0125 11.9456 64.0231 11.9456C92.0337 11.9456 114.747 35.1724 114.747 63.8343C114.747 92.4961 92.0337 115.723 64.0231 115.723ZM64.0231 10.1107C35.2805 10.1107 11.9868 34.2085 11.9868 63.9504C11.9868 93.6923 35.2805 117.79 64.0231 117.79C92.7656 117.79 116.071 93.6807 116.071 63.9504C116.071 34.2201 92.7656 10.1107 64.0231 10.1107ZM64.0231 124.305C31.772 124.305 5.63184 97.2808 5.63184 63.9156C5.63184 30.5503 31.7371 3.584 63.9882 3.584C96.2393 3.584 122.368 30.6084 122.368 63.9736C122.368 97.3389 96.2277 124.363 63.9882 124.363L64.0231 124.305Z" fill="#B69659"/>
</svg>
