<svg width="46" height="64" viewBox="0 0 46 64" fill="none" xmlns="http://www.w3.org/2000/svg">
<path d="M22.8569 0C10.2534 0 0 10.522 0 23.4556C0 29.397 3.6481 37.7915 10.8434 48.4062C16.1027 56.1655 21.2753 62.1699 21.4932 62.4219L22.8569 64L24.2211 62.4219C24.4385 62.1699 29.6112 56.1655 34.8708 48.4062C42.0657 37.7915 45.7143 29.397 45.7143 23.4556C45.7143 10.522 35.4604 0 22.8569 0Z" fill="#1B1B1B"/>
<path d="M17.5173 28.3319H15.6394V26.9362H17.5173V16.1568H20.8431V32.8671H17.4956L17.5173 28.3319ZM29.8179 26.8824V28.2971H23.0736V32.8734H21.6815V16.1568H29.4374V17.5493H23.0736V26.8729L29.8179 26.8824ZM22.8633 10.5139C15.89 10.5139 10.2378 16.4289 10.2378 23.7239C10.2378 31.0188 15.8931 36.9307 22.8633 36.9307C29.8334 36.9307 35.4887 31.0188 35.4887 23.7239C35.4887 16.4289 29.8365 10.5139 22.8633 10.5139ZM22.8633 37.8739C15.4043 37.8739 9.35607 31.5442 9.35607 23.7334C9.35607 15.9226 15.4043 9.59289 22.8633 9.59289C30.3222 9.59289 36.3704 15.9226 36.3704 23.7334C36.3704 31.5442 30.3222 37.8739 22.8633 37.8739ZM22.8633 9.09285C15.2094 9.09285 9.00648 15.6599 9.00648 23.765C9.00648 31.8702 15.2094 38.4372 22.8633 38.4372C30.5171 38.4372 36.7231 31.867 36.7231 23.765C36.7231 15.663 30.5171 9.09285 22.8633 9.09285ZM22.8633 40.2127C14.2751 40.2127 7.31421 32.8481 7.31421 23.7555C7.31421 14.663 14.2658 7.31421 22.854 7.31421C31.4421 7.31421 38.3999 14.6788 38.3999 23.7714C38.3999 32.8639 31.439 40.2285 22.854 40.2285L22.8633 40.2127Z" fill="#B69659"/>
</svg>
