<svg width="34" height="34" viewBox="0 0 34 34" fill="none" xmlns="http://www.w3.org/2000/svg">
<circle cx="17" cy="17" r="17" fill="#FAFAFA"/>
<g clip-path="url(#clip0_4022_26290)">
<path d="M22.2268 13.0512C24.0584 13.0512 26.5212 13.6062 26.5212 15.4378C26.5212 17.2695 25.5639 19.429 16.4435 19.3415C8.65072 19.2669 6.97229 15.831 7.69162 13.6649C8.41095 11.4989 12.458 10.831 15.5663 11.3306C18.6745 11.8301 19.2295 13.0512 22.2268 13.0512Z" stroke="#1B1B1B"/>
<path d="M7.56689 15.131C7.56689 16.5227 7.56689 19.6948 7.56689 19.6948C7.56689 19.6948 10.6212 22.2357 16.4435 22.2915C25.5639 22.379 26.5212 20.2702 26.5212 20.2702V15.131" stroke="#1B1B1B"/>
<ellipse cx="13.5251" cy="14.1456" rx="1.98799" ry="0.952603" stroke="#1B1B1B"/>
</g>
<defs>
<clipPath id="clip0_4022_26290">
<rect width="20" height="20" fill="white" transform="translate(7 7)"/>
</clipPath>
</defs>
</svg>
